<?xml version="1.0" encoding="UTF-8" standalone="no"?>
<!DOCTYPE svg PUBLIC "-//W3C//DTD SVG 1.1//EN" "http://www.w3.org/Graphics/SVG/1.1/DTD/svg11.dtd">
<svg width="100%" height="100%" viewBox="0 0 32 32" version="1.1" xmlns="http://www.w3.org/2000/svg" xmlns:xlink="http://www.w3.org/1999/xlink" xml:space="preserve" xmlns:serif="http://www.serif.com/" style="fill-rule:evenodd;clip-rule:evenodd;stroke-linejoin:round;stroke-miterlimit:2;">
    <g transform="matrix(1.05882,0,0,1.25,-0.970588,16)">
        <path d="M9.462,-6.4L8.59,-6.4C8.264,-6.4 8,-6.624 8,-6.9L8,-7.9C8,-8.176 8.264,-8.4 8.59,-8.4L24.41,-8.4C24.736,-8.4 25,-8.176 25,-7.9L25,-6.9C25,-6.624 24.736,-6.4 24.41,-6.4L23.538,-6.4C23.241,-3.773 21.522,-1.697 19.846,-0.389C21.519,0.996 23.242,3.334 23.539,6L24.41,6C24.736,6 25,6.224 25,6.5L25,7.5C25,7.776 24.736,8 24.41,8L8.59,8C8.264,8 8,7.776 8,7.5L8,6.5C8,6.224 8.264,6 8.59,6L9.461,6C9.758,3.334 11.481,0.996 13.154,-0.389C11.478,-1.697 9.759,-3.773 9.462,-6.4ZM21.639,-6.4L11.361,-6.4C11.708,-3.899 13.626,-2.026 15.178,-1.04C15.416,-0.889 15.556,-0.652 15.556,-0.4C15.556,-0.148 15.416,0.089 15.178,0.24C13.616,1.232 11.7,3.424 11.359,6L21.641,6C21.3,3.424 19.384,1.232 17.822,0.24C17.584,0.089 17.444,-0.148 17.444,-0.4C17.444,-0.652 17.584,-0.889 17.822,-1.04C19.374,-2.026 21.292,-3.899 21.639,-6.4ZM15.498,3.083C16.052,2.614 16.948,2.614 17.502,3.083L19.667,4.917C19.802,5.032 19.843,5.204 19.77,5.353C19.697,5.503 19.524,5.6 19.333,5.6L13.667,5.6C13.476,5.6 13.303,5.503 13.23,5.353C13.157,5.204 13.198,5.032 13.333,4.917L15.498,3.083ZM16.122,-0.96L14.706,-2.56C14.598,-2.681 14.581,-2.843 14.661,-2.979C14.741,-3.114 14.904,-3.2 15.083,-3.2L17.917,-3.2C18.096,-3.2 18.259,-3.114 18.339,-2.979C18.419,-2.843 18.402,-2.681 18.294,-2.56L16.878,-0.96C16.789,-0.859 16.649,-0.8 16.5,-0.8C16.351,-0.8 16.211,-0.859 16.122,-0.96Z" style="fill:rgb(235,247,255);fill-opacity:0.6;"/>
    </g>
</svg>
