<?xml version="1.0" encoding="UTF-8" standalone="no"?>
<!DOCTYPE svg PUBLIC "-//W3C//DTD SVG 1.1//EN" "http://www.w3.org/Graphics/SVG/1.1/DTD/svg11.dtd">
<svg width="100%" height="100%" viewBox="0 0 32 32" version="1.1" xmlns="http://www.w3.org/2000/svg" xmlns:xlink="http://www.w3.org/1999/xlink" xml:space="preserve" xmlns:serif="http://www.serif.com/" style="fill-rule:evenodd;clip-rule:evenodd;stroke-linejoin:round;stroke-miterlimit:2;">
    <g transform="matrix(1,0,0,1.05882,0.859884,-0.529412)">
        <path d="M22.882,11.524C24.293,13.153 25.14,15.234 25.14,17.5C25.14,22.713 20.659,26.944 15.14,26.944C9.621,26.944 5.14,22.713 5.14,17.5C5.14,12.769 8.831,8.846 13.64,8.161L13.64,6.167L12.265,6.167C11.92,6.167 11.64,5.902 11.64,5.576L11.64,4.396C11.64,4.07 11.92,3.806 12.265,3.806L18.015,3.806C18.36,3.806 18.64,4.07 18.64,4.396L18.64,5.576C18.64,5.902 18.36,6.167 18.015,6.167L16.64,6.167L16.64,8.161C18.454,8.42 20.11,9.139 21.468,10.188L22.269,9.432L22.092,9.265C21.897,9.08 21.897,8.781 22.092,8.597L22.799,7.929C22.994,7.745 23.311,7.745 23.506,7.929L25.274,9.599C25.469,9.783 25.469,10.082 25.274,10.266L24.567,10.934C24.372,11.119 24.055,11.119 23.86,10.934L23.683,10.767L22.882,11.524ZM15.14,9.944C10.725,9.944 7.14,13.33 7.14,17.5C7.14,21.67 10.725,25.056 15.14,25.056C19.555,25.056 23.14,21.67 23.14,17.5C23.14,13.33 19.555,9.944 15.14,9.944ZM16.378,17.667C16.292,18.239 15.77,18.68 15.14,18.68C14.45,18.68 13.89,18.151 13.89,17.5C13.89,16.905 14.357,16.412 14.963,16.331L18.433,13.054C18.628,12.87 18.884,12.778 19.14,12.778L20.14,12.778L20.14,13.722C20.14,13.964 20.042,14.206 19.847,14.39L16.378,17.667Z" style="fill:rgb(235,247,255);fill-opacity:0.6;"/>
    </g>
</svg>
