<?xml version="1.0" encoding="UTF-8" standalone="no"?>
<!DOCTYPE svg PUBLIC "-//W3C//DTD SVG 1.1//EN" "http://www.w3.org/Graphics/SVG/1.1/DTD/svg11.dtd">
<svg width="100%" height="100%" viewBox="0 0 32 32" version="1.1" xmlns="http://www.w3.org/2000/svg" xmlns:xlink="http://www.w3.org/1999/xlink" xml:space="preserve" xmlns:serif="http://www.serif.com/" style="fill-rule:evenodd;clip-rule:evenodd;stroke-linejoin:round;stroke-miterlimit:2;">
    <g transform="matrix(1,0,0,1,-31,-440)">
        <path d="M48.614,445.119L48.768,447.942C49.72,448.151 50.627,448.526 51.448,449.052L53.553,447.165C54.422,447.809 55.191,448.578 55.835,449.447L53.948,451.552C54.474,452.373 54.849,453.28 55.058,454.232L57.881,454.386C58.04,455.456 58.04,456.544 57.881,457.614L55.058,457.768C54.849,458.72 54.474,459.627 53.948,460.448L55.835,462.553C55.191,463.422 54.422,464.191 53.553,464.835L51.448,462.948C50.627,463.474 49.72,463.849 48.768,464.058L48.614,466.881C47.544,467.04 46.456,467.04 45.386,466.881L45.232,464.058C44.28,463.849 43.373,463.474 42.552,462.948L40.447,464.835C39.578,464.191 38.809,463.422 38.165,462.553L40.052,460.448C39.526,459.627 39.151,458.72 38.942,457.768L36.119,457.614C35.96,456.544 35.96,455.456 36.119,454.386L38.942,454.232C39.151,453.28 39.526,452.373 40.052,451.552L38.165,449.447C38.809,448.578 39.578,447.809 40.447,447.165L42.552,449.052C43.373,448.526 44.28,448.151 45.232,447.942L45.386,445.119C46.456,444.96 47.544,444.96 48.614,445.119ZM47,452.7C48.821,452.7 50.3,454.179 50.3,456C50.3,457.821 48.821,459.3 47,459.3C45.179,459.3 43.7,457.821 43.7,456C43.7,454.179 45.179,452.7 47,452.7Z" style="fill:rgb(235,247,255);fill-opacity:0.6;"/>
    </g>
</svg>
