<?xml version="1.0" encoding="UTF-8" standalone="no"?>
<!DOCTYPE svg PUBLIC "-//W3C//DTD SVG 1.1//EN" "http://www.w3.org/Graphics/SVG/1.1/DTD/svg11.dtd">
<svg width="100%" height="100%" viewBox="0 0 36 36" version="1.1" xmlns="http://www.w3.org/2000/svg" xmlns:xlink="http://www.w3.org/1999/xlink" xml:space="preserve" xmlns:serif="http://www.serif.com/" style="fill-rule:evenodd;clip-rule:evenodd;stroke-linejoin:round;stroke-miterlimit:2;">
    <g transform="matrix(1.01389,0,0,1.01389,-267.917,-105.694)">
        <path d="M291.493,114.973L291.493,129.027C291.493,130.388 290.388,131.493 289.027,131.493L274.973,131.493C273.612,131.493 272.507,130.388 272.507,129.027L272.507,114.973C272.507,113.612 273.612,112.507 274.973,112.507L289.027,112.507C290.388,112.507 291.493,113.612 291.493,114.973ZM290.507,114.973C290.507,114.156 289.844,113.493 289.027,113.493L274.973,113.493C274.156,113.493 273.493,114.156 273.493,114.973L273.493,129.027C273.493,129.844 274.156,130.507 274.973,130.507L289.027,130.507C289.844,130.507 290.507,129.844 290.507,129.027L290.507,114.973ZM278.983,117.619L280.43,116.172C280.487,116.116 280.571,116.099 280.645,116.129C280.719,116.16 280.767,116.232 280.767,116.312L280.767,120.767L276.312,120.767C276.232,120.767 276.16,120.719 276.129,120.645C276.099,120.571 276.116,120.487 276.172,120.43L277.611,118.991C277.414,118.666 276.937,117.983 275.066,116.112C274.777,115.823 274.777,115.355 275.066,115.066C275.355,114.777 275.823,114.777 276.112,115.066C277.983,116.937 278.658,117.423 278.983,117.619ZM285.017,117.619C285.342,117.423 286.017,116.937 287.888,115.066C288.177,114.777 288.645,114.777 288.934,115.066C289.223,115.355 289.223,115.823 288.934,116.112C287.063,117.983 286.586,118.666 286.389,118.991L287.828,120.43C287.884,120.487 287.901,120.571 287.871,120.645C287.84,120.719 287.768,120.767 287.688,120.767L283.233,120.767L283.233,116.312C283.233,116.232 283.281,116.16 283.355,116.129C283.429,116.099 283.513,116.116 283.57,116.172L285.017,117.619ZM278.983,126.381C278.658,126.577 277.983,127.063 276.112,128.934C275.823,129.223 275.355,129.223 275.066,128.934C274.777,128.645 274.777,128.177 275.066,127.888C276.937,126.017 277.414,125.334 277.611,125.009L276.172,123.57C276.116,123.513 276.099,123.429 276.129,123.355C276.16,123.281 276.232,123.233 276.312,123.233L280.767,123.233L280.767,127.688C280.767,127.768 280.719,127.84 280.645,127.871C280.571,127.901 280.487,127.884 280.43,127.828L278.983,126.381ZM285.017,126.381L283.57,127.828C283.513,127.884 283.429,127.901 283.355,127.871C283.281,127.84 283.233,127.768 283.233,127.688L283.233,123.233L287.688,123.233C287.768,123.233 287.84,123.281 287.871,123.355C287.901,123.429 287.884,123.513 287.828,123.57L286.389,125.009C286.586,125.334 287.063,126.017 288.934,127.888C289.223,128.177 289.223,128.645 288.934,128.934C288.645,129.223 288.177,129.223 287.888,128.934C286.017,127.063 285.342,126.577 285.017,126.381Z" style="fill:rgb(136,160,185);"/>
    </g>
</svg>
