<?xml version="1.0" encoding="UTF-8" standalone="no"?>
<!DOCTYPE svg PUBLIC "-//W3C//DTD SVG 1.1//EN" "http://www.w3.org/Graphics/SVG/1.1/DTD/svg11.dtd">
<svg width="100%" height="100%" viewBox="0 0 36 36" version="1.1" xmlns="http://www.w3.org/2000/svg" xmlns:xlink="http://www.w3.org/1999/xlink" xml:space="preserve" xmlns:serif="http://www.serif.com/" style="fill-rule:evenodd;clip-rule:evenodd;stroke-linejoin:round;stroke-miterlimit:2;">
    <g transform="matrix(1.01389,0,0,1.01389,-267.917,-105.694)">
        <path d="M291.493,114.973L291.493,129.027C291.493,130.388 290.388,131.493 289.027,131.493L274.973,131.493C273.612,131.493 272.507,130.388 272.507,129.027L272.507,114.973C272.507,113.612 273.612,112.507 274.973,112.507L289.027,112.507C290.388,112.507 291.493,113.612 291.493,114.973ZM290.507,114.973C290.507,114.156 289.844,113.493 289.027,113.493L274.973,113.493C274.156,113.493 273.493,114.156 273.493,114.973L273.493,129.027C273.493,129.844 274.156,130.507 274.973,130.507L289.027,130.507C289.844,130.507 290.507,129.844 290.507,129.027L290.507,114.973ZM276.633,117.997L275.186,119.444C275.13,119.5 275.045,119.517 274.971,119.487C274.897,119.456 274.849,119.384 274.849,119.305L274.849,114.849L279.305,114.849C279.384,114.849 279.456,114.897 279.487,114.971C279.517,115.045 279.5,115.13 279.444,115.186L278.005,116.625C278.202,116.95 278.679,117.633 280.55,119.504C280.839,119.793 280.839,120.262 280.55,120.55C280.262,120.839 279.793,120.839 279.504,120.55C277.633,118.679 276.958,118.194 276.633,117.997ZM287.367,117.997C287.042,118.194 286.367,118.679 284.496,120.55C284.207,120.839 283.738,120.839 283.45,120.55C283.161,120.262 283.161,119.793 283.45,119.504C285.321,117.633 285.798,116.95 285.995,116.625L284.556,115.186C284.5,115.13 284.483,115.045 284.513,114.971C284.544,114.897 284.616,114.849 284.695,114.849L289.151,114.849L289.151,119.305C289.151,119.384 289.103,119.456 289.029,119.487C288.955,119.517 288.87,119.5 288.814,119.444L287.367,117.997ZM276.633,126.003C276.958,125.806 277.633,125.321 279.504,123.45C279.793,123.161 280.262,123.161 280.55,123.45C280.839,123.738 280.839,124.207 280.55,124.496C278.679,126.367 278.202,127.05 278.005,127.375L279.444,128.814C279.5,128.87 279.517,128.955 279.487,129.029C279.456,129.103 279.384,129.151 279.305,129.151L274.849,129.151L274.849,124.695C274.849,124.616 274.897,124.544 274.971,124.513C275.045,124.483 275.13,124.5 275.186,124.556L276.633,126.003ZM287.367,126.003L288.814,124.556C288.87,124.5 288.955,124.483 289.029,124.513C289.103,124.544 289.151,124.616 289.151,124.695L289.151,129.151L284.695,129.151C284.616,129.151 284.544,129.103 284.513,129.029C284.483,128.955 284.5,128.87 284.556,128.814L285.995,127.375C285.798,127.05 285.321,126.367 283.45,124.496C283.161,124.207 283.161,123.738 283.45,123.45C283.738,123.161 284.207,123.161 284.496,123.45C286.367,125.321 287.042,125.806 287.367,126.003Z" style="fill:rgb(255,255,255);"/>
    </g>
</svg>
