<?xml version="1.0" encoding="UTF-8" standalone="no"?>
<!DOCTYPE svg PUBLIC "-//W3C//DTD SVG 1.1//EN" "http://www.w3.org/Graphics/SVG/1.1/DTD/svg11.dtd">
<svg width="100%" height="100%" viewBox="0 0 414 172" version="1.1" xmlns="http://www.w3.org/2000/svg" xmlns:xlink="http://www.w3.org/1999/xlink" xml:space="preserve" xmlns:serif="http://www.serif.com/" style="fill-rule:evenodd;clip-rule:evenodd;stroke-linecap:round;stroke-linejoin:round;stroke-miterlimit:1.5;">
    <g transform="matrix(4.35937,-1.16809,1.16809,4.35937,-4587.44,-989.528)">
        <g transform="matrix(0.125,0,0,0.125,986.307,493.952)">
            <path d="M33.5,17.333L33.5,33.333" style="fill:none;stroke:url(#_Radial1);stroke-width:8px;"/>
        </g>
        <g transform="matrix(0.108253,0.0625,-0.0625,0.108253,995.951,494.292)">
            <path d="M33.5,17.333L33.5,33.333" style="fill:none;stroke:url(#_Radial2);stroke-width:8px;"/>
        </g>
        <g transform="matrix(0.0625,0.108253,-0.108253,0.0625,1004.13,499.409)">
            <path d="M33.5,17.333L33.5,33.333" style="fill:none;stroke:url(#_Radial3);stroke-width:8px;"/>
        </g>
        <g transform="matrix(7.63278e-17,0.125,-0.125,7.63278e-17,1008.66,507.931)">
            <path d="M33.5,17.333L33.5,33.333" style="fill:none;stroke:url(#_Radial4);stroke-width:8px;"/>
        </g>
        <g transform="matrix(-0.0625,0.108253,-0.108253,-0.0625,1008.32,517.575)">
            <path d="M33.5,17.333L33.5,33.333" style="fill:none;stroke:url(#_Radial5);stroke-width:8px;"/>
        </g>
        <g transform="matrix(-0.108253,0.0625,-0.0625,-0.108253,1003.2,525.757)">
            <path d="M33.5,17.333L33.5,33.333" style="fill:none;stroke:url(#_Radial6);stroke-width:8px;"/>
        </g>
        <g transform="matrix(-0.125,1.59595e-16,-1.59595e-16,-0.125,994.682,530.285)">
            <path d="M33.5,17.333L33.5,33.333" style="fill:none;stroke:url(#_Radial7);stroke-width:8px;"/>
        </g>
        <g transform="matrix(-0.108253,-0.0625,0.0625,-0.108253,985.038,529.945)">
            <path d="M33.5,17.333L33.5,33.333" style="fill:none;stroke:url(#_Radial8);stroke-width:8px;"/>
        </g>
        <g transform="matrix(-0.0625,-0.108253,0.108253,-0.0625,976.856,524.828)">
            <path d="M33.5,17.333L33.5,33.333" style="fill:none;stroke:url(#_Radial9);stroke-width:8px;"/>
        </g>
        <g transform="matrix(-2.35922e-16,-0.125,0.125,-2.35922e-16,972.328,516.306)">
            <path d="M33.5,17.333L33.5,33.333" style="fill:none;stroke:url(#_Radial10);stroke-width:8px;"/>
        </g>
        <g transform="matrix(0.0625,-0.108253,0.108253,0.0625,972.668,506.661)">
            <path d="M33.5,17.333L33.5,33.333" style="fill:none;stroke:url(#_Radial11);stroke-width:8px;"/>
        </g>
        <g transform="matrix(0.108253,-0.0625,0.0625,0.108253,977.785,498.479)">
            <path d="M33.5,17.333L33.5,33.333" style="fill:none;stroke:url(#_Radial12);stroke-width:8px;"/>
        </g>
    </g>
    <g transform="matrix(1,0,0,1,-781.763,-441.36)">
        <g transform="matrix(1,0,0,1,-0.696,0)">
            <g transform="matrix(1,0,0,1,544.064,-0.323346)">
                <path d="M265.464,521.958L265.464,521.955L265.418,507.377L260.118,522.269C259.874,523.038 259.486,523.515 259.051,523.817C258.593,524.135 258.064,524.267 257.504,524.267C256.88,524.267 256.34,524.085 255.943,523.723C255.553,523.368 255.256,522.819 255.256,521.963L255.056,496.667L259.236,496.667L259.31,513.167L264.72,497.979C264.963,497.258 265.326,496.804 265.724,496.515C266.164,496.194 266.667,496.059 267.2,496.059C267.816,496.059 268.329,496.237 268.711,496.589C269.072,496.922 269.356,497.44 269.384,498.291L269.384,513.115L275.264,496.667L279.602,496.667L270.324,522.275C269.829,523.756 268.866,524.267 267.68,524.267C267.048,524.267 266.517,524.089 266.129,523.729C265.756,523.384 265.465,522.842 265.464,521.958ZM267.455,518.896L267.464,521.954L267.464,521.955C267.464,522.059 267.488,522.187 267.501,522.249C267.547,522.256 267.627,522.267 267.68,522.267C268.03,522.267 268.282,522.076 268.432,521.627L269.305,519.216L267.455,518.896ZM270.959,514.65L276.75,498.667L276.673,498.667L270.959,514.65ZM257.294,522.239C257.332,522.247 257.437,522.267 257.504,522.267C257.649,522.267 257.792,522.256 257.91,522.174C258.048,522.078 258.137,521.903 258.22,521.638L259.092,519.187L257.336,518.888L257.245,498.667L257.072,498.667L257.256,521.951L257.256,521.955C257.256,522.045 257.263,522.125 257.279,522.194C257.282,522.207 257.289,522.226 257.294,522.239ZM265.648,501.333L267.384,501.629L267.383,498.314C267.377,498.226 267.356,498.126 267.343,498.073C267.303,498.067 267.242,498.059 267.2,498.059C266.937,498.059 266.745,498.229 266.61,498.633L265.648,501.333Z" style="fill-opacity:0.5;"/>
            </g>
            <g transform="matrix(1,0,0,1,544.064,-0.323346)">
                <path d="M288.85,523.627L279.424,523.627C277.858,523.627 276.625,523.133 275.852,522.169C275.115,521.25 274.758,519.839 275.111,517.814L276.776,508.438C277.113,506.524 277.877,505.207 278.88,504.354C279.914,503.475 281.22,503.067 282.688,503.067L287.392,503.067C288.961,503.067 290.184,503.555 290.948,504.505C291.677,505.411 292.028,506.807 291.673,508.816L291.167,511.7L279.237,517.202C279.139,517.852 279.094,518.38 279.119,518.808C279.137,519.098 279.159,519.318 279.296,519.457C279.522,519.685 279.912,519.675 280.448,519.675L289.498,519.675L288.85,523.627ZM286.849,505.067C287.954,505.144 288.684,505.492 289.126,506.038C289.614,506.642 289.823,507.592 289.562,509.038L289.337,510.341L289.378,510.323L289.704,508.47C289.925,507.215 289.844,506.324 289.389,505.758C288.968,505.235 288.257,505.067 287.392,505.067L286.849,505.067ZM279.903,506.139C279.943,506.098 279.984,506.059 280.026,506.021C280.623,505.476 281.38,505.166 282.342,505.078C281.516,505.129 280.773,505.37 280.176,505.877C280.081,505.958 279.99,506.045 279.903,506.139ZM279.636,521.627C278.842,521.526 278.272,521.265 277.875,520.864C277.519,520.505 277.271,520.022 277.168,519.356C277.1,518.919 277.098,518.378 277.16,517.714L277.081,518.16C276.859,519.433 276.949,520.34 277.412,520.918C277.84,521.45 278.558,521.627 279.424,521.627L279.636,521.627ZM280.569,509.394L279.98,512.725L287.519,509.116L287.592,508.693L287.592,508.688C287.668,508.271 287.702,507.923 287.673,507.636C287.659,507.497 287.639,507.381 287.571,507.296C287.486,507.192 287.345,507.156 287.174,507.119C286.946,507.07 286.678,507.051 286.368,507.051L282.944,507.051C282.278,507.051 281.755,507.151 281.374,507.498C280.956,507.879 280.728,508.504 280.569,509.394Z" style="fill-opacity:0.5;"/>
            </g>
            <g transform="matrix(1,0,0,1,544.064,-0.323346)">
                <path d="M297.063,503.067L302.72,503.067C304.279,503.067 305.516,503.541 306.296,504.474C307.048,505.375 307.421,506.766 307.065,508.785L305.401,518.193C305.064,520.102 304.296,521.435 303.285,522.305C302.242,523.203 300.925,523.627 299.456,523.627L294.784,523.627C293.219,523.627 291.986,523.133 291.214,522.175C290.475,521.259 290.117,519.855 290.471,517.846L294.201,496.667L298.183,496.667L297.063,503.067ZM294.914,521.627C294.066,521.51 293.42,521.177 292.987,520.636C292.622,520.18 292.383,519.53 292.376,518.622C292.246,519.656 292.363,520.414 292.771,520.92C293.199,521.45 293.917,521.627 294.784,521.627L294.914,521.627ZM302.176,505.067C303.113,505.137 303.868,505.433 304.374,505.993C304.847,506.516 305.157,507.32 305.074,508.559L305.096,508.438C305.315,507.192 305.225,506.312 304.761,505.756C304.324,505.233 303.594,505.067 302.72,505.067L302.176,505.067ZM296.358,507.051L294.457,517.745C294.318,518.537 294.292,519.065 294.549,519.387C294.768,519.66 295.165,519.675 295.648,519.675L299.296,519.675C299.846,519.675 300.324,519.585 300.691,519.262C301.102,518.899 301.354,518.293 301.512,517.397L303.015,508.954C303.15,508.149 303.162,507.635 302.891,507.334C302.642,507.059 302.216,507.051 301.728,507.051L296.358,507.051Z" style="fill-opacity:0.5;"/>
            </g>
        </g>
        <g transform="matrix(1,0,0,1,-0.696,0)">
            <g transform="matrix(1,0,0,1,544.064,-0.323346)">
                <path d="M266.464,521.955C266.464,522.979 266.976,523.267 267.68,523.267C268.448,523.267 269.056,522.915 269.376,521.955L278.176,497.667L275.968,497.667L268.384,518.883L268.384,498.307C268.352,497.347 267.872,497.059 267.2,497.059C266.56,497.059 265.984,497.347 265.664,498.307L258.336,518.883L258.24,497.667L256.064,497.667L256.256,521.955C256.256,522.947 256.8,523.267 257.504,523.267C258.208,523.267 258.848,522.979 259.168,521.955L266.4,501.635L266.464,521.955Z" style="fill:url(#_Linear13);fill-rule:nonzero;"/>
            </g>
            <g transform="matrix(1,0,0,1,544.064,-0.323346)">
                <path d="M288.32,520.675L280.448,520.675C278.24,520.675 277.76,519.811 278.336,516.515L290.272,511.011L290.688,508.643C291.264,505.379 289.824,504.067 287.392,504.067L282.688,504.067C280.256,504.067 278.336,505.347 277.76,508.611L276.096,517.987C275.52,521.283 276.992,522.627 279.424,522.627L288,522.627L288.32,520.675ZM279.584,509.219C280,506.883 281.024,506.051 282.944,506.051L286.368,506.051C288.32,506.051 288.96,506.755 288.576,508.867L288.416,509.795L278.656,514.467L279.584,509.219Z" style="fill:url(#_Linear14);fill-rule:nonzero;"/>
            </g>
            <g transform="matrix(1,0,0,1,544.064,-0.323346)">
                <path d="M295.872,504.067L296.992,497.667L295.04,497.667L291.456,518.019C290.88,521.283 292.352,522.627 294.784,522.627L299.456,522.627C301.888,522.627 303.84,521.283 304.416,518.019L306.08,508.611C306.656,505.347 305.152,504.067 302.72,504.067L295.872,504.067ZM295.52,506.051L301.728,506.051C303.36,506.051 304.416,506.659 304,509.123L302.496,517.571C302.08,519.939 300.928,520.675 299.296,520.675L295.648,520.675C293.952,520.675 293.056,519.939 293.472,517.571L295.52,506.051Z" style="fill:url(#_Linear15);fill-rule:nonzero;"/>
            </g>
        </g>
        <g>
            <g transform="matrix(1,0,0,1,547.368,41.8527)">
                <path d="M271.168,489.855L264.796,489.855L264.796,524.127L258.628,524.127L258.628,489.855L250.564,489.855L250.564,483.687L272.668,483.687L272.668,489.855L271.168,489.855ZM269.668,486.855L269.668,486.687L253.564,486.687L253.564,486.855L261.628,486.855L261.628,521.127L261.796,521.127L261.796,486.855L269.668,486.855Z" style="fill-opacity:0.5;"/>
            </g>
            <g transform="matrix(1,0,0,1,547.368,41.8527)">
                <path d="M290.716,501.603L290.716,515.763C290.716,518.714 289.871,520.756 288.555,522.086C287.197,523.459 285.292,524.127 283.024,524.127L275.92,524.127C273.65,524.127 271.743,523.445 270.384,522.056C269.07,520.714 268.228,518.66 268.228,515.715L268.228,501.651C268.228,498.701 269.074,496.659 270.39,495.328C271.748,493.956 273.652,493.287 275.92,493.287L283.024,493.287C285.29,493.287 287.192,493.942 288.549,495.299C289.868,496.617 290.716,498.648 290.716,501.603ZM275.554,521.119C274.366,520.948 273.4,520.501 272.668,519.75C271.98,519.045 271.468,518.028 271.259,516.579C271.371,518.087 271.792,519.206 272.528,519.958C273.279,520.726 274.332,521.065 275.554,521.119ZM287.694,516.499C287.472,518.107 286.872,519.173 286.084,519.887C285.315,520.584 284.316,520.976 283.134,521.127C284.468,521.11 285.618,520.79 286.422,519.976C287.176,519.214 287.597,518.065 287.694,516.499ZM282.638,496.287C284.01,496.382 285.176,496.765 286.052,497.539C286.859,498.253 287.479,499.329 287.7,500.973C287.616,499.361 287.197,498.189 286.428,497.42C285.6,496.592 284.407,496.287 283.024,496.287L282.638,496.287ZM271.251,500.912C271.454,499.442 271.972,498.414 272.673,497.702C273.506,496.854 274.646,496.394 276.071,496.287L275.92,496.287C274.54,496.287 273.349,496.603 272.523,497.438C271.769,498.2 271.348,499.348 271.251,500.912ZM274.156,502.371L274.156,515.043C274.156,516.297 274.321,517.148 274.816,517.656C275.26,518.112 275.932,518.199 276.736,518.199L281.92,518.199C282.793,518.199 283.552,518.133 284.069,517.664C284.601,517.182 284.788,516.34 284.788,515.043L284.788,502.371C284.788,501.086 284.597,500.257 284.065,499.787C283.542,499.325 282.781,499.263 281.92,499.263L276.736,499.263C275.93,499.263 275.257,499.352 274.812,499.805C274.32,500.306 274.156,501.143 274.156,502.371Z" style="fill-opacity:0.5;"/>
            </g>
            <g transform="matrix(1,0,0,1,547.368,41.8527)">
                <path d="M297.676,515.043C297.676,516.297 297.841,517.148 298.336,517.656C298.78,518.112 299.452,518.199 300.256,518.199L305.68,518.199C306.415,518.199 307.042,518.111 307.461,517.67C307.947,517.159 308.116,516.305 308.116,515.043L308.116,493.287L314.044,493.287L314.044,515.715C314.044,518.658 313.216,520.709 311.918,522.05C310.571,523.443 308.676,524.127 306.4,524.127L299.44,524.127C297.17,524.127 295.263,523.445 293.904,522.056C292.59,520.714 291.748,518.66 291.748,515.715L291.748,493.287L297.676,493.287L297.676,515.043ZM294.779,516.579C294.891,518.087 295.312,519.206 296.048,519.958C296.799,520.726 297.852,521.065 299.074,521.119C297.886,520.948 296.92,520.501 296.188,519.75C295.5,519.045 294.988,518.028 294.779,516.579ZM306.841,521.116C308.025,521.051 309.038,520.713 309.762,519.964C310.493,519.21 310.905,518.088 311.015,516.575C310.809,518.02 310.304,519.033 309.636,519.736C308.917,520.493 307.977,520.942 306.841,521.116Z" style="fill-opacity:0.5;"/>
            </g>
            <g transform="matrix(1,0,0,1,547.368,41.8527)">
                <path d="M322.768,524.127C320.498,524.127 318.591,523.445 317.232,522.056C315.918,520.714 315.076,518.66 315.076,515.715L315.076,501.603C315.076,498.648 315.925,496.617 317.244,495.299C318.6,493.942 320.502,493.287 322.768,493.287L333.724,493.287L333.724,499.263L323.488,499.263C322.729,499.263 322.085,499.353 321.657,499.796C321.171,500.298 321.004,501.138 321.004,502.371L321.004,515.043C321.004,516.302 321.172,517.155 321.661,517.665C322.088,518.111 322.731,518.199 323.488,518.199L333.724,518.199L333.724,524.127L322.768,524.127ZM318.094,500.945C318.292,499.462 318.808,498.427 319.5,497.711C320.327,496.855 321.452,496.394 322.841,496.287L322.768,496.287C321.386,496.287 320.193,496.592 319.365,497.42C318.601,498.184 318.181,499.347 318.094,500.945ZM318.107,516.583C318.22,518.089 318.641,519.207 319.376,519.958C320.107,520.705 321.123,521.046 322.303,521.114C321.158,520.939 320.214,520.492 319.495,519.741C318.822,519.038 318.315,518.026 318.107,516.583Z" style="fill-opacity:0.5;"/>
            </g>
            <g transform="matrix(1,0,0,1,547.368,41.8527)">
                <path d="M347.92,499.263L340.108,499.263L340.108,524.127L334.18,524.127L334.18,483.687L340.108,483.687L340.108,493.287L348.64,493.287C350.911,493.287 352.817,493.969 354.176,495.358C355.49,496.701 356.332,498.754 356.332,501.699L356.332,524.127L350.356,524.127L350.356,502.371C350.356,501.135 350.188,500.295 349.705,499.791C349.286,499.353 348.656,499.263 347.92,499.263ZM348.559,496.287C349.93,496.394 351.047,496.855 351.872,497.716C352.653,498.532 353.212,499.765 353.332,501.604C353.318,499.702 352.888,498.331 352.032,497.456C351.207,496.613 350.018,496.287 348.64,496.287L348.559,496.287Z" style="fill-opacity:0.5;"/>
            </g>
            <g transform="matrix(1,0,0,1,547.368,41.8527)">
                <path d="M377.882,521.872L373.888,499.628L369.895,521.872C369.697,523.108 369.186,523.869 368.575,524.354C367.939,524.859 367.145,525.087 366.256,525.087C365.377,525.087 364.57,524.851 363.92,524.341C363.289,523.846 362.769,523.079 362.571,521.88L355.526,483.687L361.845,483.687L366.344,508.541L370.395,485.886C370.594,484.712 371.085,483.979 371.664,483.508C372.283,483.004 373.048,482.775 373.888,482.775C374.764,482.775 375.522,483.007 376.137,483.508C376.707,483.972 377.191,484.694 377.426,485.869L381.44,508.505L385.931,483.687L392.301,483.687L385.205,521.884C385.009,523.037 384.529,523.799 383.921,524.3C383.29,524.821 382.482,525.087 381.52,525.087C380.632,525.087 379.838,524.859 379.202,524.354C378.591,523.869 378.079,523.108 377.882,521.872ZM372.551,490.874L375.267,490.874L374.477,486.421C374.423,486.149 374.379,485.945 374.244,485.835C374.15,485.759 374.022,485.775 373.888,485.775C373.768,485.775 373.646,485.762 373.557,485.835C373.429,485.939 373.395,486.134 373.35,486.403L372.551,490.874ZM367.672,517.276L364.876,517.278L359.339,486.687L359.13,486.687L365.527,521.364L365.529,521.38C365.574,521.658 365.627,521.867 365.772,521.981C365.903,522.084 366.079,522.087 366.256,522.087C366.425,522.087 366.589,522.1 366.71,522.004C366.852,521.891 366.889,521.677 366.937,521.371L367.672,517.276ZM380.104,517.273L380.84,521.371L380.842,521.388C380.888,521.677 380.924,521.891 381.067,522.004C381.187,522.1 381.352,522.087 381.52,522.087C381.711,522.087 381.886,522.09 382.011,521.987C382.157,521.866 382.202,521.651 382.251,521.359L388.692,486.687L388.437,486.687L382.9,517.278L380.104,517.273Z" style="fill-opacity:0.5;"/>
            </g>
            <g transform="matrix(1,0,0,1,547.368,41.8527)">
                <path d="M397.066,493.287L397.804,493.287L397.804,524.127L391.876,524.127L391.876,493.287L392.616,493.287C392.019,492.688 391.636,491.847 391.636,490.899C391.636,489.029 393.125,487.575 394.816,487.575C396.587,487.575 398.044,489.04 398.044,490.899C398.044,491.844 397.668,492.687 397.066,493.287ZM394.636,490.899C394.636,491.05 394.68,491.223 394.816,491.223C394.968,491.223 395.044,491.058 395.044,490.899C395.044,490.74 394.968,490.575 394.816,490.575C394.68,490.575 394.636,490.749 394.636,490.899Z" style="fill-opacity:0.5;"/>
            </g>
            <g transform="matrix(1,0,0,1,548.064,41.8527)">
                <path d="M411.654,499.263L398.452,499.263L398.452,493.287L418.048,493.287C418.978,493.287 419.56,493.536 419.932,493.815L420.336,494.21L420.617,494.688L420.759,495.169L420.796,495.603C420.796,496.308 420.296,497.215 419.733,498.061L406.479,518.199L419.692,518.199L419.692,524.127L400.384,524.127C399.209,524.127 398.495,523.793 398.087,523.438L397.769,523.096L397.529,522.684L397.39,522.242L397.348,521.811C397.348,521.133 397.772,520.336 398.314,519.387L398.339,519.344L411.654,499.263ZM400.776,521.127L400.961,521.127L417.23,496.407L417.232,496.403C417.256,496.368 417.282,496.328 417.308,496.287L417.227,496.287L400.895,520.918L400.89,520.926C400.853,520.99 400.815,521.058 400.776,521.127Z" style="fill-opacity:0.5;"/>
            </g>
        </g>
        <g>
            <g transform="matrix(1,0,0,1,547.368,41.8527)">
                <path d="M271.168,488.355L271.168,485.187L252.064,485.187L252.064,488.355L260.128,488.355L260.128,522.627L263.296,522.627L263.296,488.355L271.168,488.355Z" style="fill:url(#_Linear16);fill-rule:nonzero;"/>
            </g>
            <g transform="matrix(1,0,0,1,547.368,41.8527)">
                <path d="M289.216,501.603C289.216,496.707 286.672,494.787 283.024,494.787L275.92,494.787C272.272,494.787 269.728,496.755 269.728,501.651L269.728,515.715C269.728,520.611 272.272,522.627 275.92,522.627L283.024,522.627C286.672,522.627 289.216,520.659 289.216,515.763L289.216,501.603ZM272.656,502.371C272.656,498.867 274.192,497.763 276.736,497.763L281.92,497.763C284.464,497.763 286.288,498.627 286.288,502.371L286.288,515.043C286.288,518.787 284.512,519.699 281.92,519.699L276.736,519.699C274.192,519.699 272.656,518.595 272.656,515.043L272.656,502.371Z" style="fill:url(#_Linear17);fill-rule:nonzero;"/>
            </g>
            <g transform="matrix(1,0,0,1,547.368,41.8527)">
                <path d="M296.176,494.787L293.248,494.787L293.248,515.715C293.248,520.611 295.792,522.627 299.44,522.627L306.4,522.627C310.048,522.627 312.544,520.611 312.544,515.715L312.544,494.787L309.616,494.787L309.616,515.043C309.616,518.595 308.08,519.699 305.68,519.699L300.256,519.699C297.712,519.699 296.176,518.595 296.176,515.043L296.176,494.787Z" style="fill:url(#_Linear18);fill-rule:nonzero;"/>
            </g>
            <g transform="matrix(1,0,0,1,547.368,41.8527)">
                <path d="M332.224,522.627L332.224,519.699L323.488,519.699C321.04,519.699 319.504,518.595 319.504,515.043L319.504,502.371C319.504,498.867 321.04,497.763 323.488,497.763L332.224,497.763L332.224,494.787L322.768,494.787C319.12,494.787 316.576,496.707 316.576,501.603L316.576,515.715C316.576,520.611 319.12,522.627 322.768,522.627L332.224,522.627Z" style="fill:url(#_Linear19);fill-rule:nonzero;"/>
            </g>
            <g transform="matrix(1,0,0,1,547.368,41.8527)">
                <path d="M347.92,497.763C350.32,497.763 351.856,498.867 351.856,502.371L351.856,522.627L354.832,522.627L354.832,501.699C354.832,496.803 352.288,494.787 348.64,494.787L338.608,494.787L338.608,485.187L335.68,485.187L335.68,522.627L338.608,522.627L338.608,497.763L347.92,497.763Z" style="fill:url(#_Linear20);fill-rule:nonzero;"/>
            </g>
            <g transform="matrix(1,0,0,1,547.368,41.8527)">
                <path d="M379.36,521.619C379.6,523.155 380.464,523.587 381.52,523.587C382.672,523.587 383.488,523.059 383.728,521.619L390.496,485.187L387.184,485.187L381.424,517.011L375.952,486.147C375.664,484.707 374.896,484.275 373.888,484.275C372.928,484.275 372.112,484.707 371.872,486.147L366.352,517.011L360.592,485.187L357.328,485.187L364.048,521.619C364.288,523.107 365.2,523.587 366.256,523.587C367.312,523.587 368.176,523.155 368.416,521.619L373.888,491.139L379.36,521.619Z" style="fill:url(#_Linear21);fill-rule:nonzero;"/>
            </g>
            <g transform="matrix(1,0,0,1,547.368,41.8527)">
                <path d="M396.304,494.787L393.376,494.787L393.376,522.627L396.304,522.627L396.304,494.787ZM393.136,490.899C393.136,491.907 393.904,492.723 394.816,492.723C395.776,492.723 396.544,491.907 396.544,490.899C396.544,489.891 395.776,489.075 394.816,489.075C393.904,489.075 393.136,489.891 393.136,490.899Z" style="fill:url(#_Linear22);fill-rule:nonzero;"/>
            </g>
            <g transform="matrix(1,0,0,1,548.064,41.8527)">
                <path d="M399.616,520.131C399.232,520.803 398.848,521.331 398.848,521.811C398.848,522.291 399.28,522.627 400.384,522.627L418.192,522.627L418.192,519.699L403.696,519.699L418.48,497.235C418.864,496.659 419.296,496.083 419.296,495.603C419.296,495.123 419.008,494.787 418.048,494.787L399.952,494.787L399.952,497.763L414.448,497.763L399.616,520.131Z" style="fill:url(#_Linear23);fill-rule:nonzero;"/>
            </g>
        </g>
        <g>
            <g transform="matrix(1,0,0,1,548.064,41.8527)">
                <path d="M448.8,483.091C448.352,483.091 448.137,483.41 447.999,483.925C447.854,484.47 447.792,485.144 447.792,485.955L447.792,509.315C447.792,510.166 447.854,510.864 448.001,511.424C448.086,511.744 448.162,512.002 448.343,512.151C448.46,512.247 448.621,512.243 448.8,512.243L466.928,512.243L466.928,524.627L446.048,524.627C442.989,524.627 440.387,523.619 438.529,521.672C436.738,519.794 435.6,516.987 435.6,513.155L435.6,482.563C435.6,478.769 436.715,475.871 438.489,473.898C440.355,471.822 442.974,470.707 446.048,470.707L466.928,470.707L466.928,483.091L448.8,483.091ZM462.928,479.091L462.928,474.707L446.048,474.707C444.194,474.707 442.589,475.32 441.464,476.572C440.245,477.928 439.6,479.957 439.6,482.563L439.6,513.155C439.6,515.724 440.223,517.652 441.423,518.911C442.558,520.1 444.18,520.627 446.048,520.627L462.928,520.627L462.928,516.243L448.8,516.243C447.404,516.243 446.3,515.789 445.451,514.917C444.479,513.918 443.792,512.154 443.792,509.315L443.792,485.955C443.792,483.21 444.47,481.449 445.445,480.438C446.295,479.557 447.402,479.091 448.8,479.091L462.928,479.091Z" style="fill-opacity:0.5;"/>
            </g>
            <g transform="matrix(1,0,0,1,548.064,41.8527)">
                <path d="M479.472,524.627L468.048,524.627L468.048,470.707L479.472,470.707L479.472,524.627ZM475.472,474.707L472.048,474.707L472.048,520.627L475.472,520.627L475.472,474.707Z" style="fill-opacity:0.5;"/>
            </g>
            <g transform="matrix(1,0,0,1,548.064,41.8527)">
                <path d="M513.072,494.787L513.072,513.027C513.072,516.941 511.826,519.79 509.927,521.69C507.977,523.639 505.297,524.627 502.304,524.627L491.808,524.627C488.803,524.627 486.128,523.582 484.19,521.565C482.321,519.619 481.104,516.726 481.104,512.835L481.104,494.979C481.104,491.056 482.341,488.239 484.225,486.374C486.155,484.464 488.815,483.507 491.808,483.507L502.304,483.507C505.284,483.507 507.949,484.406 509.889,486.249C511.805,488.068 513.072,490.841 513.072,494.787ZM509.072,494.787C509.072,492.205 508.388,490.339 507.135,489.15C505.908,487.984 504.189,487.507 502.304,487.507L491.808,487.507C489.938,487.507 488.245,488.023 487.039,489.217C485.788,490.456 485.104,492.374 485.104,494.979L485.104,512.835C485.104,515.473 485.808,517.475 487.075,518.794C488.273,520.041 489.95,520.627 491.808,520.627L502.304,520.627C504.176,520.627 505.879,520.08 507.098,518.861C508.367,517.592 509.072,515.643 509.072,513.027L509.072,494.787ZM488.528,497.731C488.528,495.332 489.132,493.753 490.004,492.739C491.01,491.57 492.43,490.995 494.24,490.995L498.912,490.995C501.043,490.995 502.971,491.401 504.23,492.896C505.039,493.857 505.648,495.342 505.648,497.731L505.648,510.467C505.648,513.516 504.669,515.122 503.44,516.043C502.257,516.931 500.665,517.203 498.912,517.203L494.24,517.203C492.43,517.203 491.01,516.629 490.004,515.46C489.132,514.445 488.528,512.866 488.528,510.467L488.528,497.731ZM492.528,497.731L492.528,510.467C492.528,511.723 492.613,512.55 493.15,512.959C493.432,513.173 493.81,513.203 494.24,513.203L498.912,513.203C499.722,513.203 500.494,513.253 501.04,512.843C501.543,512.467 501.648,511.714 501.648,510.467L501.648,497.731C501.648,496.637 501.541,495.913 501.17,495.472C500.952,495.213 500.632,495.14 500.297,495.082C499.862,495.007 499.393,494.995 498.912,494.995L494.24,494.995C493.81,494.995 493.432,495.025 493.15,495.24C492.613,495.649 492.528,496.476 492.528,497.731Z" style="fill-opacity:0.5;"/>
            </g>
            <g transform="matrix(1,0,0,1,548.064,41.8527)">
                <path d="M524.896,524.627C521.895,524.627 519.227,523.618 517.292,521.643C515.417,519.73 514.192,516.867 514.192,512.963L514.192,494.851C514.192,490.915 515.437,488.129 517.328,486.295C519.255,484.428 521.908,483.507 524.896,483.507L541.36,483.507L541.36,494.995L526.944,494.995C525.936,494.995 525.616,495.882 525.616,497.731L525.616,510.467C525.616,512.317 525.936,513.203 526.944,513.203L541.36,513.203L541.36,524.627L524.896,524.627ZM537.36,520.627L537.36,517.203L526.944,517.203C525.677,517.203 524.56,516.839 523.658,516.082C522.516,515.125 521.616,513.407 521.616,510.467L521.616,497.731C521.616,494.792 522.516,493.074 523.658,492.116C524.56,491.36 525.677,490.995 526.944,490.995L537.36,490.995L537.36,487.507L524.896,487.507C523.02,487.507 521.322,487.995 520.112,489.167C518.867,490.374 518.192,492.26 518.192,494.851L518.192,512.963C518.192,515.588 518.888,517.557 520.149,518.843C521.35,520.069 523.033,520.627 524.896,520.627L537.36,520.627Z" style="fill-opacity:0.5;"/>
            </g>
            <g transform="matrix(1,0,0,1,548.064,41.8527)">
                <path d="M553.392,496.053L561.297,483.507L575.009,483.507L561.906,504.047L575.531,524.627L561.642,524.627L553.392,512.089L553.392,524.627L541.968,524.627L541.968,470.707L553.392,470.707L553.392,496.053ZM552.988,504.198L563.798,520.627L568.086,520.627L557.135,504.088L567.712,487.507L563.504,487.507L552.988,504.198ZM549.392,474.707L545.968,474.707L545.968,520.627L549.392,520.627L549.392,474.707Z" style="fill-opacity:0.5;"/>
            </g>
        </g>
        <g>
            <g transform="matrix(1,0,0,1,548.064,41.8527)">
                <path d="M464.928,481.091L464.928,472.707L446.048,472.707C441.12,472.707 437.6,476.163 437.6,482.563L437.6,513.155C437.6,519.555 441.12,522.627 446.048,522.627L464.928,522.627L464.928,514.243L448.8,514.243C446.816,514.243 445.792,512.835 445.792,509.315L445.792,485.955C445.792,482.563 446.816,481.091 448.8,481.091L464.928,481.091Z" style="fill:url(#_Linear24);fill-rule:nonzero;"/>
            </g>
            <g transform="matrix(1,0,0,1,548.064,41.8527)">
                <rect x="470.048" y="472.707" width="7.424" height="49.92" style="fill:url(#_Linear25);fill-rule:nonzero;"/>
            </g>
            <g transform="matrix(1,0,0,1,548.064,41.8527)">
                <path d="M511.072,494.787C511.072,488.259 507.168,485.507 502.304,485.507L491.808,485.507C486.944,485.507 483.104,488.451 483.104,494.979L483.104,512.835C483.104,519.363 486.944,522.627 491.808,522.627L502.304,522.627C507.168,522.627 511.072,519.555 511.072,513.027L511.072,494.787ZM490.528,497.731C490.528,494.211 491.936,492.995 494.24,492.995L498.912,492.995C501.408,492.995 503.648,493.379 503.648,497.731L503.648,510.467C503.648,514.755 501.472,515.203 498.912,515.203L494.24,515.203C491.936,515.203 490.528,513.987 490.528,510.467L490.528,497.731Z" style="fill:url(#_Linear26);fill-rule:nonzero;"/>
            </g>
            <g transform="matrix(1,0,0,1,548.064,41.8527)">
                <path d="M539.36,522.627L539.36,515.203L526.944,515.203C525.024,515.203 523.616,513.987 523.616,510.467L523.616,497.731C523.616,494.211 525.024,492.995 526.944,492.995L539.36,492.995L539.36,485.507L524.896,485.507C520.032,485.507 516.192,488.323 516.192,494.851L516.192,512.963C516.192,519.491 520.032,522.627 524.896,522.627L539.36,522.627Z" style="fill:url(#_Linear27);fill-rule:nonzero;"/>
            </g>
            <g transform="matrix(1,0,0,1,548.064,41.8527)">
                <path d="M551.392,472.707L543.968,472.707L543.968,522.627L551.392,522.627L551.392,505.411L562.72,522.627L571.808,522.627L559.52,504.067L571.36,485.507L562.4,485.507L551.392,502.979L551.392,472.707Z" style="fill:url(#_Linear28);fill-rule:nonzero;"/>
            </g>
        </g>
    </g>
    <g transform="matrix(4.35937,-1.16809,1.16809,4.35937,-4587.44,-989.528)">
        <g transform="matrix(0.0804053,-0.110668,0.505636,0.367366,970.947,503.58)">
            <path d="M33.5,17.333L33.5,33.333" style="fill:none;stroke:url(#_Radial29);stroke-width:2.21px;"/>
        </g>
        <g transform="matrix(0.0676345,0.208158,-0.951057,0.309017,1019.93,494.844)">
            <path d="M33.5,17.333L33.5,33.333" style="fill:none;stroke:url(#_Radial30);stroke-width:1.38px;"/>
        </g>
        <g transform="matrix(0.909905,5.05099e-17,-5.05099e-17,0.909905,960.013,481.636)">
            <circle cx="33.5" cy="33.5" r="1.099" style="fill:url(#_Radial31);"/>
        </g>
    </g>
    <defs>
        <radialGradient id="_Radial1" cx="0" cy="0" r="1" gradientUnits="userSpaceOnUse" gradientTransform="matrix(4.89859e-16,8,-4,0,33.5,25.3332)"><stop offset="0" style="stop-color:#fff;stop-opacity:0.5"/><stop offset="0.48" style="stop-color:#bcbcbc;stop-opacity:0.37"/><stop offset="1" style="stop-color:#000;stop-opacity:0"/></radialGradient>
        <radialGradient id="_Radial2" cx="0" cy="0" r="1" gradientUnits="userSpaceOnUse" gradientTransform="matrix(4.89859e-16,8,-4,0,33.5,25.3332)"><stop offset="0" style="stop-color:#fff;stop-opacity:0.5"/><stop offset="0.48" style="stop-color:#bcbcbc;stop-opacity:0.37"/><stop offset="1" style="stop-color:#000;stop-opacity:0"/></radialGradient>
        <radialGradient id="_Radial3" cx="0" cy="0" r="1" gradientUnits="userSpaceOnUse" gradientTransform="matrix(4.89859e-16,8,-4,0,33.5,25.3332)"><stop offset="0" style="stop-color:#fff;stop-opacity:0.5"/><stop offset="0.48" style="stop-color:#bcbcbc;stop-opacity:0.37"/><stop offset="1" style="stop-color:#000;stop-opacity:0"/></radialGradient>
        <radialGradient id="_Radial4" cx="0" cy="0" r="1" gradientUnits="userSpaceOnUse" gradientTransform="matrix(4.89859e-16,8,-4,0,33.5,25.3332)"><stop offset="0" style="stop-color:#fff;stop-opacity:0.5"/><stop offset="0.48" style="stop-color:#bcbcbc;stop-opacity:0.37"/><stop offset="1" style="stop-color:#000;stop-opacity:0"/></radialGradient>
        <radialGradient id="_Radial5" cx="0" cy="0" r="1" gradientUnits="userSpaceOnUse" gradientTransform="matrix(4.89859e-16,8,-4,0,33.5,25.3332)"><stop offset="0" style="stop-color:#fff;stop-opacity:0.5"/><stop offset="0.48" style="stop-color:#bcbcbc;stop-opacity:0.37"/><stop offset="1" style="stop-color:#000;stop-opacity:0"/></radialGradient>
        <radialGradient id="_Radial6" cx="0" cy="0" r="1" gradientUnits="userSpaceOnUse" gradientTransform="matrix(4.89859e-16,8,-4,0,33.5,25.3332)"><stop offset="0" style="stop-color:#fff;stop-opacity:0.5"/><stop offset="0.48" style="stop-color:#bcbcbc;stop-opacity:0.37"/><stop offset="1" style="stop-color:#000;stop-opacity:0"/></radialGradient>
        <radialGradient id="_Radial7" cx="0" cy="0" r="1" gradientUnits="userSpaceOnUse" gradientTransform="matrix(4.89859e-16,8,-4,0,33.5,25.3332)"><stop offset="0" style="stop-color:#fff;stop-opacity:0.5"/><stop offset="0.48" style="stop-color:#bcbcbc;stop-opacity:0.37"/><stop offset="1" style="stop-color:#000;stop-opacity:0"/></radialGradient>
        <radialGradient id="_Radial8" cx="0" cy="0" r="1" gradientUnits="userSpaceOnUse" gradientTransform="matrix(4.89859e-16,8,-4,0,33.5,25.3332)"><stop offset="0" style="stop-color:#fff;stop-opacity:0.5"/><stop offset="0.48" style="stop-color:#bcbcbc;stop-opacity:0.37"/><stop offset="1" style="stop-color:#000;stop-opacity:0"/></radialGradient>
        <radialGradient id="_Radial9" cx="0" cy="0" r="1" gradientUnits="userSpaceOnUse" gradientTransform="matrix(4.89859e-16,8,-4,0,33.5,25.3332)"><stop offset="0" style="stop-color:#fff;stop-opacity:0.5"/><stop offset="0.48" style="stop-color:#bcbcbc;stop-opacity:0.37"/><stop offset="1" style="stop-color:#000;stop-opacity:0"/></radialGradient>
        <radialGradient id="_Radial10" cx="0" cy="0" r="1" gradientUnits="userSpaceOnUse" gradientTransform="matrix(4.89859e-16,8,-4,0,33.5,25.3332)"><stop offset="0" style="stop-color:#fff;stop-opacity:0.5"/><stop offset="0.48" style="stop-color:#bcbcbc;stop-opacity:0.37"/><stop offset="1" style="stop-color:#000;stop-opacity:0"/></radialGradient>
        <radialGradient id="_Radial11" cx="0" cy="0" r="1" gradientUnits="userSpaceOnUse" gradientTransform="matrix(4.89859e-16,8,-4,0,33.5,25.3332)"><stop offset="0" style="stop-color:#fff;stop-opacity:0.5"/><stop offset="0.48" style="stop-color:#bcbcbc;stop-opacity:0.37"/><stop offset="1" style="stop-color:#000;stop-opacity:0"/></radialGradient>
        <radialGradient id="_Radial12" cx="0" cy="0" r="1" gradientUnits="userSpaceOnUse" gradientTransform="matrix(4.89859e-16,8,-4,0,33.5,25.3332)"><stop offset="0" style="stop-color:#fff;stop-opacity:0.5"/><stop offset="0.48" style="stop-color:#bcbcbc;stop-opacity:0.37"/><stop offset="1" style="stop-color:#000;stop-opacity:0"/></radialGradient>
        <linearGradient id="_Linear13" x1="0" y1="0" x2="1" y2="0" gradientUnits="userSpaceOnUse" gradientTransform="matrix(1.60478e-15,26.208,-26.208,1.60478e-15,256.064,497.059)"><stop offset="0" style="stop-color:#fff;stop-opacity:1"/><stop offset="1" style="stop-color:#a6a6a6;stop-opacity:1"/></linearGradient>
        <linearGradient id="_Linear14" x1="0" y1="0" x2="1" y2="0" gradientUnits="userSpaceOnUse" gradientTransform="matrix(1.60478e-15,26.208,-26.208,1.60478e-15,256.064,497.059)"><stop offset="0" style="stop-color:#fff;stop-opacity:1"/><stop offset="1" style="stop-color:#a6a6a6;stop-opacity:1"/></linearGradient>
        <linearGradient id="_Linear15" x1="0" y1="0" x2="1" y2="0" gradientUnits="userSpaceOnUse" gradientTransform="matrix(1.60478e-15,26.208,-26.208,1.60478e-15,256.064,497.059)"><stop offset="0" style="stop-color:#fff;stop-opacity:1"/><stop offset="1" style="stop-color:#a6a6a6;stop-opacity:1"/></linearGradient>
        <linearGradient id="_Linear16" x1="0" y1="0" x2="1" y2="0" gradientUnits="userSpaceOnUse" gradientTransform="matrix(2.34838e-15,38.352,-38.352,2.34838e-15,252.064,484.275)"><stop offset="0" style="stop-color:#fff;stop-opacity:1"/><stop offset="1" style="stop-color:#ccc;stop-opacity:1"/></linearGradient>
        <linearGradient id="_Linear17" x1="0" y1="0" x2="1" y2="0" gradientUnits="userSpaceOnUse" gradientTransform="matrix(2.34838e-15,38.352,-38.352,2.34838e-15,252.064,484.275)"><stop offset="0" style="stop-color:#fff;stop-opacity:1"/><stop offset="1" style="stop-color:#ccc;stop-opacity:1"/></linearGradient>
        <linearGradient id="_Linear18" x1="0" y1="0" x2="1" y2="0" gradientUnits="userSpaceOnUse" gradientTransform="matrix(2.34838e-15,38.352,-38.352,2.34838e-15,252.064,484.275)"><stop offset="0" style="stop-color:#fff;stop-opacity:1"/><stop offset="1" style="stop-color:#ccc;stop-opacity:1"/></linearGradient>
        <linearGradient id="_Linear19" x1="0" y1="0" x2="1" y2="0" gradientUnits="userSpaceOnUse" gradientTransform="matrix(2.34838e-15,38.352,-38.352,2.34838e-15,252.064,484.275)"><stop offset="0" style="stop-color:#fff;stop-opacity:1"/><stop offset="1" style="stop-color:#ccc;stop-opacity:1"/></linearGradient>
        <linearGradient id="_Linear20" x1="0" y1="0" x2="1" y2="0" gradientUnits="userSpaceOnUse" gradientTransform="matrix(2.34838e-15,38.352,-38.352,2.34838e-15,252.064,484.275)"><stop offset="0" style="stop-color:#fff;stop-opacity:1"/><stop offset="1" style="stop-color:#ccc;stop-opacity:1"/></linearGradient>
        <linearGradient id="_Linear21" x1="0" y1="0" x2="1" y2="0" gradientUnits="userSpaceOnUse" gradientTransform="matrix(2.34838e-15,38.352,-38.352,2.34838e-15,252.064,484.275)"><stop offset="0" style="stop-color:#fff;stop-opacity:1"/><stop offset="1" style="stop-color:#ccc;stop-opacity:1"/></linearGradient>
        <linearGradient id="_Linear22" x1="0" y1="0" x2="1" y2="0" gradientUnits="userSpaceOnUse" gradientTransform="matrix(2.34838e-15,38.352,-38.352,2.34838e-15,252.064,484.275)"><stop offset="0" style="stop-color:#fff;stop-opacity:1"/><stop offset="1" style="stop-color:#ccc;stop-opacity:1"/></linearGradient>
        <linearGradient id="_Linear23" x1="0" y1="0" x2="1" y2="0" gradientUnits="userSpaceOnUse" gradientTransform="matrix(2.34838e-15,38.352,-38.352,2.34838e-15,252.064,484.275)"><stop offset="0" style="stop-color:#fff;stop-opacity:1"/><stop offset="1" style="stop-color:#ccc;stop-opacity:1"/></linearGradient>
        <linearGradient id="_Linear24" x1="0" y1="0" x2="1" y2="0" gradientUnits="userSpaceOnUse" gradientTransform="matrix(3.05672e-15,49.92,-49.92,3.05672e-15,437.6,472.707)"><stop offset="0" style="stop-color:#fff;stop-opacity:1"/><stop offset="0.17" style="stop-color:#fff;stop-opacity:1"/><stop offset="1" style="stop-color:#bfbfbf;stop-opacity:1"/></linearGradient>
        <linearGradient id="_Linear25" x1="0" y1="0" x2="1" y2="0" gradientUnits="userSpaceOnUse" gradientTransform="matrix(3.05672e-15,49.92,-49.92,3.05672e-15,437.6,472.707)"><stop offset="0" style="stop-color:#fff;stop-opacity:1"/><stop offset="0.17" style="stop-color:#fff;stop-opacity:1"/><stop offset="1" style="stop-color:#bfbfbf;stop-opacity:1"/></linearGradient>
        <linearGradient id="_Linear26" x1="0" y1="0" x2="1" y2="0" gradientUnits="userSpaceOnUse" gradientTransform="matrix(3.05672e-15,49.92,-49.92,3.05672e-15,437.6,472.707)"><stop offset="0" style="stop-color:#fff;stop-opacity:1"/><stop offset="0.17" style="stop-color:#fff;stop-opacity:1"/><stop offset="1" style="stop-color:#bfbfbf;stop-opacity:1"/></linearGradient>
        <linearGradient id="_Linear27" x1="0" y1="0" x2="1" y2="0" gradientUnits="userSpaceOnUse" gradientTransform="matrix(3.05672e-15,49.92,-49.92,3.05672e-15,437.6,472.707)"><stop offset="0" style="stop-color:#fff;stop-opacity:1"/><stop offset="0.17" style="stop-color:#fff;stop-opacity:1"/><stop offset="1" style="stop-color:#bfbfbf;stop-opacity:1"/></linearGradient>
        <linearGradient id="_Linear28" x1="0" y1="0" x2="1" y2="0" gradientUnits="userSpaceOnUse" gradientTransform="matrix(3.05672e-15,49.92,-49.92,3.05672e-15,437.6,472.707)"><stop offset="0" style="stop-color:#fff;stop-opacity:1"/><stop offset="0.17" style="stop-color:#fff;stop-opacity:1"/><stop offset="1" style="stop-color:#bfbfbf;stop-opacity:1"/></linearGradient>
        <radialGradient id="_Radial29" cx="0" cy="0" r="1" gradientUnits="userSpaceOnUse" gradientTransform="matrix(-5.68434e-14,-16,-3.65514,-4.32987e-15,33.5,33.3332)"><stop offset="0" style="stop-color:#fff;stop-opacity:0.5"/><stop offset="0.48" style="stop-color:#bcbcbc;stop-opacity:0.37"/><stop offset="1" style="stop-color:#000;stop-opacity:0"/></radialGradient>
        <radialGradient id="_Radial30" cx="0" cy="0" r="1" gradientUnits="userSpaceOnUse" gradientTransform="matrix(2.84217e-14,-16,2.28446,2.27596e-15,33.5,33.3332)"><stop offset="0" style="stop-color:#fff;stop-opacity:0.5"/><stop offset="0.48" style="stop-color:#bcbcbc;stop-opacity:0.37"/><stop offset="1" style="stop-color:#000;stop-opacity:0"/></radialGradient>
        <radialGradient id="_Radial31" cx="0" cy="0" r="1" gradientUnits="userSpaceOnUse" gradientTransform="matrix(1.09902,1.56179e-14,-1.56179e-14,1.09902,33.5,33.5)"><stop offset="0" style="stop-color:#fff;stop-opacity:0.5"/><stop offset="0.5" style="stop-color:#fff;stop-opacity:0.67"/><stop offset="0.55" style="stop-color:#fff;stop-opacity:0.25"/><stop offset="1" style="stop-color:#fff;stop-opacity:0"/></radialGradient>
    </defs>
<script xmlns=""/></svg>