<?xml version="1.0" encoding="UTF-8" standalone="no"?>
<!DOCTYPE svg PUBLIC "-//W3C//DTD SVG 1.1//EN" "http://www.w3.org/Graphics/SVG/1.1/DTD/svg11.dtd">
<svg width="100%" height="100%" viewBox="0 0 26 26" version="1.1" xmlns="http://www.w3.org/2000/svg" xmlns:xlink="http://www.w3.org/1999/xlink" xml:space="preserve" xmlns:serif="http://www.serif.com/" style="fill-rule:evenodd;clip-rule:evenodd;stroke-linecap:round;stroke-linejoin:round;">
    <g id="path5323" transform="matrix(1.77778,0,0,4,-598.882,-263.481)">
        <path d="M349,69C349,70.097 346.969,71 344.5,71C342.031,71 340,70.097 340,69C340,67.903 342.031,67 344.5,67C346.969,67 349,67.903 349,69Z" style="fill:url(#_Radial1);fill-rule:nonzero;"/>
    </g>
    <g id="path5343" transform="matrix(1.33334,0,0,3.00001,-445.774,-194.482)">
        <path d="M349,69C349,70.097 346.969,71 344.5,71C342.031,71 340,70.097 340,69C340,67.903 342.031,67 344.5,67C346.969,67 349,67.903 349,69Z" style="fill:url(#_Linear2);fill-rule:nonzero;"/>
    </g>
    <g id="path5355" transform="matrix(1.1111,0,0,-2.49998,-369.214,185.018)">
        <path d="M349,69C349,70.097 346.969,71 344.5,71C342.031,71 340,70.097 340,69C340,67.903 342.031,67 344.5,67C346.969,67 349,67.903 349,69Z" style="fill:url(#_Linear3);fill-rule:nonzero;"/>
    </g>
    <g id="path5365" transform="matrix(1.76384,0,0,3.96865,-594.083,-261.318)">
        <path d="M344.031,67.031C342.975,67.079 342.023,67.278 341.313,67.594C340.907,67.774 340.601,67.982 340.375,68.219C340.149,68.456 340.031,68.729 340.031,69C340.031,69.271 340.149,69.544 340.375,69.781C340.601,70.018 340.907,70.226 341.313,70.406C342.124,70.767 343.26,70.969 344.5,70.969C345.74,70.969 346.876,70.767 347.688,70.406C348.093,70.226 348.399,70.018 348.625,69.781C348.851,69.544 348.969,69.271 348.969,69C348.969,68.729 348.851,68.456 348.625,68.219C348.399,67.982 348.093,67.774 347.688,67.594C346.876,67.233 345.74,67.031 344.5,67.031C344.345,67.031 344.182,67.024 344.031,67.031Z" style="fill:none;fill-rule:nonzero;stroke:rgb(85,85,85);stroke-opacity:0.99;stroke-width:0.08px;"/>
    </g>
    <g id="path5369" transform="matrix(1,0,0,1,-334.438,-54.4808)">
        <path d="M336.5,62C336.5,65 337,66 338,66L339,66C340,66 340.5,65 340.5,62" style="fill:none;stroke:url(#_Linear4);stroke-width:1px;stroke-linecap:butt;stroke-linejoin:miter;"/>
    </g>
    <g id="path5371" transform="matrix(1,0,0,1,-334.438,-54.4808)">
        <path d="M357.5,62L357.5,73" style="fill:none;stroke:url(#_Linear5);stroke-width:1px;stroke-linecap:butt;stroke-linejoin:miter;"/>
    </g>
    <g id="path5373" transform="matrix(1,0,0,1,-334.438,-54.4808)">
        <path d="M356.5,62L356.5,68" style="fill:none;stroke:url(#_Linear6);stroke-width:1px;stroke-linecap:butt;stroke-linejoin:miter;"/>
    </g>
    <g id="path5385" transform="matrix(1,0,0,1,-334.438,-54.4808)">
        <path d="M338.5,62L338.5,73" style="fill:none;stroke:url(#_Linear7);stroke-width:1px;stroke-linecap:butt;stroke-linejoin:miter;"/>
    </g>
    <defs>
        <radialGradient id="_Radial1" cx="0" cy="0" r="1" gradientUnits="userSpaceOnUse" gradientTransform="matrix(4.5,0,0,2,344.5,69)"><stop offset="0" style="stop-color:white;stop-opacity:0.99"/><stop offset="1" style="stop-color:rgb(244,245,243);stop-opacity:0.99"/></radialGradient>
        <linearGradient id="_Linear2" x1="0" y1="0" x2="1" y2="0" gradientUnits="userSpaceOnUse" gradientTransform="matrix(2.24518e-16,3.66666,-3.66666,2.24518e-16,346.75,67)"><stop offset="0" style="stop-color:rgb(202,202,202);stop-opacity:0.99"/><stop offset="1" style="stop-color:rgb(244,245,243);stop-opacity:0.99"/></linearGradient>
        <linearGradient id="_Linear3" x1="0" y1="0" x2="1" y2="0" gradientUnits="userSpaceOnUse" gradientTransform="matrix(2.24518e-16,3.66666,-3.66666,2.24518e-16,346.75,67)"><stop offset="0" style="stop-color:white;stop-opacity:0.99"/><stop offset="1" style="stop-color:rgb(244,245,243);stop-opacity:0.99"/></linearGradient>
        <linearGradient id="_Linear4" x1="0" y1="0" x2="1" y2="0" gradientUnits="userSpaceOnUse" gradientTransform="matrix(5.25752e-16,-8.58618,8.58618,5.25752e-16,340.628,69.3045)"><stop offset="0" style="stop-color:rgb(85,87,83);stop-opacity:1"/><stop offset="1" style="stop-color:rgb(201,202,200);stop-opacity:1"/></linearGradient>
        <linearGradient id="_Linear5" x1="0" y1="0" x2="1" y2="0" gradientUnits="userSpaceOnUse" gradientTransform="matrix(5.8274e-16,-9.51686,9.51686,5.8274e-16,358,73.7926)"><stop offset="0" style="stop-color:rgb(85,87,83);stop-opacity:1"/><stop offset="1" style="stop-color:rgb(201,202,200);stop-opacity:1"/></linearGradient>
        <linearGradient id="_Linear6" x1="0" y1="0" x2="1" y2="0" gradientUnits="userSpaceOnUse" gradientTransform="matrix(5.63702e-16,-9.20596,9.20596,5.63702e-16,356.856,70.1607)"><stop offset="0" style="stop-color:rgb(85,87,83);stop-opacity:1"/><stop offset="1" style="stop-color:rgb(201,202,200);stop-opacity:1"/></linearGradient>
        <linearGradient id="_Linear7" x1="0" y1="0" x2="1" y2="0" gradientUnits="userSpaceOnUse" gradientTransform="matrix(8.53625e-16,-13.9408,13.9408,8.53625e-16,339,73.7926)"><stop offset="0" style="stop-color:rgb(85,87,83);stop-opacity:1"/><stop offset="1" style="stop-color:rgb(201,202,200);stop-opacity:1"/></linearGradient>
    </defs>
</svg>
