<?xml version="1.0" encoding="UTF-8" standalone="no"?><!DOCTYPE svg PUBLIC "-//W3C//DTD SVG 1.1//EN" "http://www.w3.org/Graphics/SVG/1.1/DTD/svg11.dtd"><svg width="64px" height="64px" version="1.1" xmlns="http://www.w3.org/2000/svg" xmlns:xlink="http://www.w3.org/1999/xlink" xml:space="preserve" xmlns:serif="http://www.serif.com/" style="fill-rule:evenodd;clip-rule:evenodd;stroke-linejoin:round;stroke-miterlimit:2;"><g id="Normal"><g transform="matrix(1,0,0,1,0,1)"><g transform="matrix(1,0,0,1,3,12)"><path d="M45,32C45,30.896 44.104,30 43,30L15,30C13.896,30 13,30.896 13,32C13,33.104 13.896,34 15,34L43,34C44.104,34 45,33.104 45,32Z" style="fill:white;fill-opacity:0.25;"/></g><g transform="matrix(1,0,0,1,3,0)"><path d="M45,32C45,30.896 44.104,30 43,30L15,30C13.896,30 13,30.896 13,32C13,33.104 13.896,34 15,34L43,34C44.104,34 45,33.104 45,32Z" style="fill:white;fill-opacity:0.25;"/></g><g transform="matrix(1,0,0,1,3,-12)"><path d="M45,32C45,30.896 44.104,30 43,30L15,30C13.896,30 13,30.896 13,32C13,33.104 13.896,34 15,34L43,34C44.104,34 45,33.104 45,32Z" style="fill:white;fill-opacity:0.25;"/></g></g><g><g transform="matrix(1,0,0,1,3,12)"><path d="M45,32C45,30.896 44.104,30 43,30L15,30C13.896,30 13,30.896 13,32C13,33.104 13.896,34 15,34L43,34C44.104,34 45,33.104 45,32Z" style="fill:rgb(217,217,217);"/></g><g transform="matrix(1,0,0,1,3,0)"><path d="M45,32C45,30.896 44.104,30 43,30L15,30C13.896,30 13,30.896 13,32C13,33.104 13.896,34 15,34L43,34C44.104,34 45,33.104 45,32Z" style="fill:rgb(217,217,217);"/></g><g transform="matrix(1,0,0,1,3,-12)"><path d="M45,32C45,30.896 44.104,30 43,30L15,30C13.896,30 13,30.896 13,32C13,33.104 13.896,34 15,34L43,34C44.104,34 45,33.104 45,32Z" style="fill:rgb(217,217,217);"/></g></g></g></svg>