<?xml version="1.0" encoding="UTF-8" standalone="no"?><!DOCTYPE svg PUBLIC "-//W3C//DTD SVG 1.1//EN" "http://www.w3.org/Graphics/SVG/1.1/DTD/svg11.dtd"><svg width="32px" height="32px" version="1.1" xmlns="http://www.w3.org/2000/svg" xmlns:xlink="http://www.w3.org/1999/xlink" xml:space="preserve" xmlns:serif="http://www.serif.com/" style="fill-rule:evenodd;clip-rule:evenodd;stroke-linejoin:round;stroke-miterlimit:2;"><g transform="matrix(-0.5,0,0,0.5,32,0)"><g id="Normal"><g><g transform="matrix(0.75,0,0,0.5,8,18)"><path d="M0,43.2L0,20.8L42.667,20.8L42.667,0L64,32L42.667,64L42.667,43.2L0,43.2Z" style="fill:rgb(20,20,20);"/></g><g transform="matrix(0.75,0,0,0.5,8,18)"><path d="M0,25L0,20.8L42.667,20.8L42.667,0L64,32L62.667,34L42.667,4L42.667,25L0,25Z"/></g><g transform="matrix(0.75,0,0,-0.5,8,50)"><path d="M0,25L0,20.8L42.667,20.8L42.667,0L64,32L62.667,34L42.667,4L42.667,25L0,25Z"/></g><g transform="matrix(0.75,0,0,-0.5,8,48)"><path d="M0,25L0,20.8L42.667,20.8L42.667,0L62.667,30L61.333,32L42.667,4L42.667,25L0,25Z"/></g></g></g></g></svg>