<?xml version="1.0" encoding="UTF-8" standalone="no"?><!DOCTYPE svg PUBLIC "-//W3C//DTD SVG 1.1//EN" "http://www.w3.org/Graphics/SVG/1.1/DTD/svg11.dtd"><svg width="32px" height="32px" version="1.1" xmlns="http://www.w3.org/2000/svg" xmlns:xlink="http://www.w3.org/1999/xlink" xml:space="preserve" xmlns:serif="http://www.serif.com/" style="fill-rule:evenodd;clip-rule:evenodd;stroke-linejoin:round;stroke-miterlimit:2;"><g id="Normal" transform="matrix(0.5,0,0,0.5,0,0)"><g><g transform="matrix(0.75,0,0,0.5,8,18)"><path d="M0,43.2L0,20.8L42.667,20.8L42.667,0L64,32L42.667,64L42.667,43.2L0,43.2Z" style="fill:white;fill-opacity:0.5;"/></g><g transform="matrix(0.75,0,0,0.5,8,16)"><path d="M0,43.2L0,20.8L42.667,20.8L42.667,0L64,32L42.667,64L42.667,43.2L0,43.2Z" style="fill:rgb(65,65,65);"/></g><g transform="matrix(0.75,0,0,0.5,8,16)"><path d="M0,25L0,20.8L42.667,20.8L42.667,0L64,32L62.667,34L42.667,4L42.667,25L0,25Z" style="fill:white;fill-opacity:0.05;"/></g></g></g></svg>